<svg height='300px' width='300px'  fill="#000000" xmlns="http://www.w3.org/2000/svg" data-name="Layer 1" viewBox="0 0 32 32" x="0px" y="0px"><title>ui interface close delete</title><g><path d="M16,1A15,15,0,1,0,31,16,15.0167,15.0167,0,0,0,16,1Zm0,28A13,13,0,1,1,29,16,13.0147,13.0147,0,0,1,16,29Z"></path><path d="M21.6572,10.3433a.9994.9994,0,0,0-1.414,0L16,14.586l-4.2432-4.2427a1,1,0,0,0-1.414,1.414L14.5859,16l-4.2431,4.2427a1,1,0,1,0,1.414,1.414L16,17.414l4.2432,4.2427a1,1,0,1,0,1.414-1.414L17.4141,16l4.2431-4.2427A.9994.9994,0,0,0,21.6572,10.3433Z"></path></g></svg>