<?xml version="1.0" encoding="UTF-8"?>
<svg width="51.599mm" height="34.559mm" version="1.1" viewBox="0 0 51.599 34.559" xmlns="http://www.w3.org/2000/svg" xmlns:cc="http://creativecommons.org/ns#" xmlns:dc="http://purl.org/dc/elements/1.1/" xmlns:rdf="http://www.w3.org/1999/02/22-rdf-syntax-ns#">
 <metadata>
  <rdf:RDF>
   <cc:Work rdf:about="">
    <dc:format>image/svg+xml</dc:format>
    <dc:type rdf:resource="http://purl.org/dc/dcmitype/StillImage"/>
    <dc:title/>
   </cc:Work>
  </rdf:RDF>
 </metadata>
 <g transform="translate(-201.74 -108.96)" stroke-width=".23999">
  <path d="m216.5 138.39c8.1488 0 14.755-6.5866 14.755-14.712 0-8.1252-6.6061-14.712-14.755-14.712-8.149 0-14.755 6.5867-14.755 14.712 0 8.125 6.6061 14.712 14.755 14.712z" fill="#ff9470"/>
  <path d="m216.5 133.78c5.5952 0 10.131-4.5224 10.131-10.101 0-5.579-4.5359-10.102-10.131-10.102-5.5954 0-10.131 4.5226-10.131 10.102 0 5.5789 4.5359 10.101 10.131 10.101z" fill="#98bbdf"/>
  <path d="m216.5 129.76c3.3719 0 6.1057-2.7256 6.1057-6.0877 0-3.3623-2.7338-6.088-6.1057-6.088-3.3722 0-6.1059 2.7256-6.1059 6.088 0 3.3621 2.7338 6.0877 6.1059 6.0877z" fill="#ecebeb"/>
  <path d="m253.34 143.52h-16.023l8.0115-13.835z" clip-rule="evenodd" fill="#f3f4f2" fill-rule="evenodd"/>
 </g>
</svg>
