<svg xmlns="http://www.w3.org/2000/svg" xmlns:xlink="http://www.w3.org/1999/xlink" width="1200" height="1200" viewBox="0 0 1200 1200"><rect width="100%" height="100%" fill="#FFF200"></rect><g transform="translate(600 600) scale(0.69 0.69) rotate(0) translate(-600 -600)" style="fill:#B30000"><svg fill="#B30000" xmlns="http://www.w3.org/2000/svg" xmlns:xlink="http://www.w3.org/1999/xlink" version="1.1" x="0px" y="0px" viewBox="0 0 90 90" enable-background="new 0 0 90 90" xml:space="preserve"><path d="M65.787,4.876c-8.753,0-16.353,4.689-20.787,11.613C40.566,9.565,32.967,4.876,24.213,4.876C10.841,4.876,0,15.717,0,29.089  c0,4.435,1.525,8.92,3.414,12.893c5.02,10.553,14.145,19.414,22.597,27.252C32.059,74.842,38.398,80.177,45,85.124  c6.602-4.948,12.941-10.283,18.989-15.891c8.452-7.837,17.577-16.698,22.597-27.252C88.475,38.01,90,33.525,90,29.089  C90,15.717,79.159,4.876,65.787,4.876z"></path></svg></g></svg>