<svg height='300px' width='300px'  fill="#000000" xmlns:dc="http://purl.org/dc/elements/1.1/" xmlns:cc="http://creativecommons.org/ns#" xmlns:rdf="http://www.w3.org/1999/02/22-rdf-syntax-ns#" xmlns:svg="http://www.w3.org/2000/svg" xmlns="http://www.w3.org/2000/svg" xmlns:sodipodi="http://sodipodi.sourceforge.net/DTD/sodipodi-0.dtd" xmlns:inkscape="http://www.inkscape.org/namespaces/inkscape" version="1.1" x="0px" y="0px" viewBox="0 0 100 100"><g transform="translate(0,-952.36218)"><path style="font-size:medium;font-style:normal;font-variant:normal;font-weight:normal;font-stretch:normal;text-indent:0;text-align:start;text-decoration:none;line-height:normal;letter-spacing:normal;word-spacing:normal;text-transform:none;direction:ltr;block-progression:tb;writing-mode:lr-tb;text-anchor:start;baseline-shift:baseline;opacity:1;color:#000000;fill:#000000;fill-opacity:1;stroke:none;stroke-width:6;marker:none;visibility:visible;display:inline;overflow:visible;enable-background:accumulate;font-family:Sans;-inkscape-font-specification:Sans" d="M 49.65625 5 A 3.0003 3.0003 0 0 0 47.875 5.875 L 35.875 17.875 A 3.0003 3.0003 0 1 0 40.125 22.09375 L 47 15.21875 L 47 47 L 15.25 47 L 22.125 40.09375 A 3.0003 3.0003 0 0 0 19.65625 34.96875 A 3.0003 3.0003 0 0 0 17.875 35.875 L 5.875 47.875 A 3.0003 3.0003 0 0 0 5.875 52.09375 L 17.875 64.09375 A 3.0003 3.0003 0 1 0 22.125 59.875 L 15.25 53 L 47 53 L 47 84.75 L 40.125 77.875 A 3.0003 3.0003 0 0 0 37.65625 76.96875 A 3.0003 3.0003 0 0 0 35.875 82.09375 L 47.875 94.09375 A 3.0003 3.0003 0 0 0 52.125 94.09375 L 64.125 82.09375 A 3.0003 3.0003 0 1 0 59.875 77.875 L 53 84.75 L 53 53 L 84.75 53 L 77.875 59.875 A 3.0003 3.0003 0 1 0 82.125 64.09375 L 94.125 52.09375 A 3.0003 3.0003 0 0 0 94.125 47.875 L 82.125 35.875 A 3.0003 3.0003 0 0 0 79.65625 34.96875 A 3.0003 3.0003 0 0 0 77.875 40.09375 L 84.75 47 L 53 47 L 53 15.21875 L 59.875 22.09375 A 3.0003 3.0003 0 1 0 64.125 17.875 L 52.125 5.875 A 3.0003 3.0003 0 0 0 49.65625 5 z " transform="translate(0,952.36218)"></path></g></svg>