<?xml version="1.0" encoding="UTF-8" standalone="no"?>
<svg
   xmlns:dc="http://purl.org/dc/elements/1.1/"
   xmlns:cc="http://creativecommons.org/ns#"
   xmlns:rdf="http://www.w3.org/1999/02/22-rdf-syntax-ns#"
   xmlns:svg="http://www.w3.org/2000/svg"
   xmlns="http://www.w3.org/2000/svg"
   xmlns:sodipodi="http://sodipodi.sourceforge.net/DTD/sodipodi-0.dtd"
   xmlns:inkscape="http://www.inkscape.org/namespaces/inkscape"
   version="1.1"
   id="svg885"
   width="361.79889"
   height="122.58639"
   viewBox="0 0 361.79889 122.58639"
   sodipodi:docname="scissors.svg"
   inkscape:version="1.0.1 (3bc2e813f5, 2020-09-07)">
  <metadata
     id="metadata891">
    <rdf:RDF>
      <cc:Work
         rdf:about="">
        <dc:format>image/svg+xml</dc:format>
        <dc:type
           rdf:resource="http://purl.org/dc/dcmitype/StillImage" />
        <dc:title></dc:title>
      </cc:Work>
    </rdf:RDF>
  </metadata>
  <defs
     id="defs889" />
  <sodipodi:namedview
     pagecolor="#ffffff"
     bordercolor="#666666"
     borderopacity="1"
     objecttolerance="10"
     gridtolerance="10"
     guidetolerance="10"
     inkscape:pageopacity="0"
     inkscape:pageshadow="2"
     inkscape:window-width="1920"
     inkscape:window-height="1016"
     id="namedview887"
     showgrid="false"
     inkscape:zoom="1.1729198"
     inkscape:cx="159.68141"
     inkscape:cy="-100.313"
     inkscape:window-x="0"
     inkscape:window-y="27"
     inkscape:window-maximized="1"
     inkscape:current-layer="layer1" />
  <g
     inkscape:groupmode="layer"
     inkscape:label="Image"
     id="g893"
     transform="translate(-1.9597354,-346.65745)" />
  <g
     inkscape:groupmode="layer"
     id="layer1"
     inkscape:label="new"
     transform="translate(-1.9597354,-346.65745)">
    <path
       id="path902"
       style="fill:#0b5dd3;fill-opacity:1;fill-rule:evenodd;stroke-linecap:round;stroke-linejoin:round"
       d="m 74.384409,346.65745 c -7.180678,0.0144 -15.285587,1.40127 -24.427735,4.51172 -73.137182,24.88364 -55.1387228,76.63152 3.44336,96.46289 58.582076,19.83138 60.122846,20.86679 60.122846,20.86679 l 47.47428,-0.004 c 0,0 -34.76503,-22.19194 -32.9565,-39.53626 1.58247,-15.17628 -3.39151,-82.40136 -53.656251,-82.30078 z m -8.0625,22.43555 c 1.848718,-0.0156 3.720159,0.14155 5.599609,0.49219 1.87945,0.35064 3.767344,0.89385 5.650391,1.65429 1.883046,0.76045 3.761586,1.73735 5.621093,2.95118 1.859508,1.21382 3.700932,2.66617 5.509766,4.37695 1.865505,1.76438 3.532616,3.53034 5.013672,5.29101 1.481056,1.76068 2.775902,3.51598 3.896484,5.25782 1.120583,1.74184 2.065525,3.46985 2.849606,5.17773 0.78409,1.70789 1.40735,3.39393 1.87891,5.05274 0.47156,1.6588 0.79159,3.29016 0.97461,4.88476 0.18301,1.59461 0.22804,3.15269 0.14648,4.66797 -0.0815,1.51528 -0.28917,2.98737 -0.61132,4.4082 -0.32216,1.42083 -0.75811,2.79031 -1.29688,4.10157 -0.53877,1.31125 -1.18069,2.56539 -1.912109,3.75195 -0.731419,1.18656 -1.553036,2.30677 -2.453125,3.35351 -0.900088,1.04675 -1.879045,2.01836 -2.923828,2.91016 -1.044783,0.8918 -2.15481,1.70405 -3.320312,2.42578 -1.165502,0.72173 -2.386192,1.35408 -3.648438,1.89063 -1.262245,0.53654 -2.565377,0.97627 -3.90039,1.3125 -1.335014,0.33623 -2.702132,0.56866 -4.085938,0.68945 -1.383806,0.12079 -2.784736,0.1293 -4.193359,0.0195 -2.564418,-0.19983 -4.989645,-0.52431 -7.291016,-0.9707 -2.301371,-0.44639 -4.479509,-1.01356 -6.546875,-1.70117 -2.067366,-0.68762 -4.024316,-1.49445 -5.886719,-2.41797 -1.862403,-0.92352 -3.629925,-1.96309 -5.316406,-3.11719 -1.686481,-1.1541 -3.29243,-2.42338 -4.832031,-3.80273 -1.539601,-1.37936 -3.013785,-2.86947 -4.435547,-4.46875 -1.421762,-1.59929 -2.792035,-3.3072 -4.125,-5.1211 -1.332965,-1.81389 -2.627182,-3.73463 -3.900391,-5.75781 -0.636604,-1.01159 -1.088889,-2.11105 -1.36914,-3.2793 -0.280251,-1.16825 -0.388812,-2.40421 -0.339844,-3.68554 0.04897,-1.28134 0.256371,-2.60815 0.607422,-3.95899 0.351051,-1.35084 0.844704,-2.72673 1.470703,-4.10351 0.625999,-1.37678 1.384,-2.75414 2.257812,-4.11329 0.873812,-1.35914 1.864495,-2.70011 2.958985,-3.99804 1.09449,-1.29793 2.292045,-2.55295 3.580078,-3.7461 1.288032,-1.19314 2.666654,-2.32436 4.121094,-3.36914 1.45444,-1.04478 2.984412,-2.00457 4.578125,-2.85742 1.593712,-0.85284 3.251181,-1.59751 4.957031,-2.21484 1.705849,-0.61734 3.461102,-1.10706 5.251953,-1.44532 1.790851,-0.33825 3.616125,-0.52542 5.464844,-0.54101 z"
       sodipodi:nodetypes="scsccsssssssssssscssssssssscsssssssssssssssssssss" />
    <path
       id="path905"
       style="fill:#0b5dd3;fill-opacity:1;fill-rule:evenodd;stroke-linecap:round;stroke-linejoin:round"
       d="m 186.54102,468.51826 a 5.8856149,5.8856149 0 0 0 0.0293,-0.1289 5.8856149,5.8856149 0 0 0 0.0391,-0.20117 5.8856149,5.8856149 0 0 0 0.0312,-0.20118 5.8856149,5.8856149 0 0 0 0.0254,-0.20312 5.8856149,5.8856149 0 0 0 0.0176,-0.20313 5.8856149,5.8856149 0 0 0 0.01,-0.20312 5.8856149,5.8856149 0 0 0 0.004,-0.20313 5.8856149,5.8856149 0 0 0 0,-0.0664 5.8856149,5.8856149 0 0 0 -0.006,-0.20313 5.8856149,5.8856149 0 0 0 -0.0137,-0.20312 5.8856149,5.8856149 0 0 0 -0.0195,-0.20313 5.8856149,5.8856149 0 0 0 -0.0273,-0.20312 5.8856149,5.8856149 0 0 0 -0.0332,-0.20117 5.8856149,5.8856149 0 0 0 -0.041,-0.19922 5.8856149,5.8856149 0 0 0 -0.0469,-0.19922 5.8856149,5.8856149 0 0 0 -0.0547,-0.19531 5.8856149,5.8856149 0 0 0 -0.0625,-0.19532 5.8856149,5.8856149 0 0 0 -0.0684,-0.1914 5.8856149,5.8856149 0 0 0 -0.0742,-0.19141 5.8856149,5.8856149 0 0 0 -0.0801,-0.18555 5.8856149,5.8856149 0 0 0 -0.0879,-0.18554 5.8856149,5.8856149 0 0 0 -0.0937,-0.17969 5.8856149,5.8856149 0 0 0 -0.10156,-0.17774 5.8856149,5.8856149 0 0 0 -0.10547,-0.17382 5.8856149,5.8856149 0 0 0 -0.11328,-0.17188 5.8856149,5.8856149 0 0 0 -0.11719,-0.16601 5.8856149,5.8856149 0 0 0 -0.125,-0.16211 5.8856149,5.8856149 0 0 0 -0.1289,-0.15821 5.8856149,5.8856149 0 0 0 -0.13477,-0.15234 5.8856149,5.8856149 0 0 0 -0.14063,-0.14844 5.8856149,5.8856149 0 0 0 -0.14453,-0.14258 5.8856149,5.8856149 0 0 0 -0.15039,-0.13867 5.8856149,5.8856149 0 0 0 -0.15429,-0.13281 5.8856149,5.8856149 0 0 0 -0.15821,-0.12891 5.8856149,5.8856149 0 0 0 -0.16406,-0.12109 5.8856149,5.8856149 0 0 0 -0.16797,-0.11719 5.8856149,5.8856149 0 0 0 -0.17187,-0.10937 5.8856149,5.8856149 0 0 0 -0.17383,-0.10547 5.8856149,5.8856149 0 0 0 -0.17969,-0.0977 5.8856149,5.8856149 0 0 0 -0.18164,-0.0918 5.8856149,5.8856149 0 0 0 -0.18555,-0.0859 5.8856149,5.8856149 0 0 0 -0.1875,-0.0781 5.8856149,5.8856149 0 0 0 -0.1914,-0.0742 5.8856149,5.8856149 0 0 0 -0.19141,-0.0645 5.8856149,5.8856149 0 0 0 -0.19531,-0.0605 5.8856149,5.8856149 0 0 0 -0.19727,-0.0527 5.8856149,5.8856149 0 0 0 -0.19922,-0.0449 5.8856149,5.8856149 0 0 0 -0.20117,-0.0391 5.8856149,5.8856149 0 0 0 -0.20117,-0.0312 5.8856149,5.8856149 0 0 0 -0.20312,-0.0254 5.8856149,5.8856149 0 0 0 -0.20313,-0.0176 5.8856149,5.8856149 0 0 0 -0.20313,-0.01 5.8856149,5.8856149 0 0 0 -0.20312,-0.004 5.8856149,5.8856149 0 0 0 -0.0664,0 5.8856149,5.8856149 0 0 0 -0.20312,0.006 5.8856149,5.8856149 0 0 0 -0.20313,0.0137 5.8856149,5.8856149 0 0 0 -0.20312,0.0195 5.8856149,5.8856149 0 0 0 -0.20313,0.0273 5.8856149,5.8856149 0 0 0 -0.20117,0.0332 5.8856149,5.8856149 0 0 0 -0.19922,0.041 5.8856149,5.8856149 0 0 0 -0.19922,0.0488 5.8856149,5.8856149 0 0 0 -0.19531,0.0547 5.8856149,5.8856149 0 0 0 -0.19531,0.0605 5.8856149,5.8856149 0 0 0 -0.19141,0.0684 5.8856149,5.8856149 0 0 0 -0.18945,0.0742 5.8856149,5.8856149 0 0 0 -0.1875,0.082 5.8856149,5.8856149 0 0 0 -0.18555,0.0879 5.8856149,5.8856149 0 0 0 -0.17968,0.0937 5.8856149,5.8856149 0 0 0 -0.17774,0.0996 5.8856149,5.8856149 0 0 0 -0.17383,0.10547 5.8856149,5.8856149 0 0 0 -0.17187,0.11328 5.8856149,5.8856149 0 0 0 -0.16602,0.11719 5.8856149,5.8856149 0 0 0 -0.16211,0.125 5.8856149,5.8856149 0 0 0 -0.15625,0.12891 5.8856149,5.8856149 0 0 0 -0.15429,0.13476 5.8856149,5.8856149 0 0 0 -0.14844,0.14063 5.8856149,5.8856149 0 0 0 -0.14258,0.14453 5.8856149,5.8856149 0 0 0 -0.13867,0.15039 5.8856149,5.8856149 0 0 0 -0.13281,0.1543 5.8856149,5.8856149 0 0 0 -0.12891,0.1582 5.8856149,5.8856149 0 0 0 -0.12109,0.16406 5.8856149,5.8856149 0 0 0 -0.11719,0.16797 5.8856149,5.8856149 0 0 0 -0.10938,0.17187 5.8856149,5.8856149 0 0 0 -0.10547,0.17383 5.8856149,5.8856149 0 0 0 -0.0977,0.17969 5.8856149,5.8856149 0 0 0 -0.0918,0.18164 5.8856149,5.8856149 0 0 0 -0.0859,0.18555 5.8856149,5.8856149 0 0 0 -0.0781,0.1875 5.8856149,5.8856149 0 0 0 -0.0742,0.1914 5.8856149,5.8856149 0 0 0 -0.0644,0.19336 5.8856149,5.8856149 0 0 0 -0.0606,0.19532 5.8856149,5.8856149 0 0 0 -0.0527,0.19726 5.8856149,5.8856149 0 0 0 -0.0449,0.19727 5.8856149,5.8856149 0 0 0 -0.0391,0.20117 5.8856149,5.8856149 0 0 0 -0.0312,0.20117 5.8856149,5.8856149 0 0 0 -0.0254,0.20313 5.8856149,5.8856149 0 0 0 -0.0176,0.20312 5.8856149,5.8856149 0 0 0 -0.01,0.20313 5.8856149,5.8856149 0 0 0 -0.004,0.20507 5.8856149,5.8856149 0 0 0 0,0.0645 5.8856149,5.8856149 0 0 0 0.006,0.20312 5.8856149,5.8856149 0 0 0 0.0137,0.20313 5.8856149,5.8856149 0 0 0 0.0195,0.20312 5.8856149,5.8856149 0 0 0 0.0273,0.20313 5.8856149,5.8856149 0 0 0 0.0332,0.20117 5.8856149,5.8856149 0 0 0 0.041,0.19922 5.8856149,5.8856149 0 0 0 0.0488,0.19922 5.8856149,5.8856149 0 0 0 0.0312,0.11328 z" />
    <path
       id="path914"
       style="fill:#f1f2f0;fill-opacity:1;fill-rule:evenodd;stroke-linecap:round;stroke-linejoin:round"
       d="m 180.09766,448.62178 c -20.02409,0.9766 -19.1005,19.87271 -19.1005,19.87271 l 14.14932,0.26987 c -0.0108,-0.0377 -0.0212,-0.0754 -0.0312,-0.11328 -0.0174,-0.0661 -0.0337,-0.13253 -0.0488,-0.19922 -0.0148,-0.0662 -0.0285,-0.13258 -0.041,-0.19922 -0.0122,-0.0669 -0.0233,-0.13393 -0.0332,-0.20117 -0.0103,-0.0675 -0.0194,-0.13527 -0.0273,-0.20313 -0.008,-0.0676 -0.0142,-0.13531 -0.0195,-0.20312 -0.006,-0.0676 -0.0103,-0.13535 -0.0137,-0.20313 -0.003,-0.0677 -0.005,-0.13538 -0.006,-0.20312 -1.2e-4,-0.0215 -1.2e-4,-0.043 0,-0.0645 1.1e-4,-0.0684 0.001,-0.13674 0.004,-0.20507 0.002,-0.0678 0.005,-0.13548 0.01,-0.20313 0.005,-0.0678 0.0105,-0.13552 0.0176,-0.20312 0.007,-0.0679 0.0157,-0.13557 0.0254,-0.20313 0.009,-0.0672 0.0197,-0.1343 0.0312,-0.20117 0.0119,-0.0673 0.0249,-0.13435 0.0391,-0.20117 0.0138,-0.066 0.0288,-0.13178 0.0449,-0.19727 0.0164,-0.066 0.034,-0.13182 0.0527,-0.19726 0.0191,-0.0654 0.0392,-0.13057 0.0606,-0.19532 0.0204,-0.0648 0.0419,-0.12928 0.0644,-0.19336 0.0236,-0.0642 0.0484,-0.12804 0.0742,-0.1914 0.025,-0.0629 0.051,-0.12545 0.0781,-0.1875 0.0276,-0.0623 0.0562,-0.1242 0.0859,-0.18555 0.0296,-0.0611 0.0602,-0.12163 0.0918,-0.18164 0.0315,-0.0605 0.0641,-0.12036 0.0977,-0.17969 0.0341,-0.0586 0.0693,-0.1165 0.10547,-0.17383 0.0355,-0.0579 0.0719,-0.11522 0.10938,-0.17187 0.0381,-0.0567 0.0772,-0.11266 0.11719,-0.16797 0.0394,-0.0554 0.0798,-0.11008 0.12109,-0.16406 0.042,-0.0535 0.085,-0.10622 0.12891,-0.1582 0.0434,-0.0522 0.0876,-0.10364 0.13281,-0.1543 0.0454,-0.0509 0.0916,-0.10107 0.13867,-0.15039 0.0467,-0.049 0.0942,-0.0972 0.14258,-0.14453 0.0487,-0.0477 0.0982,-0.0946 0.14844,-0.14063 0.0506,-0.0458 0.10208,-0.0907 0.15429,-0.13476 0.0513,-0.0439 0.10343,-0.0868 0.15625,-0.12891 0.0533,-0.0426 0.10735,-0.0843 0.16211,-0.125 0.0547,-0.04 0.11001,-0.0791 0.16602,-0.11719 0.0566,-0.0388 0.11392,-0.0765 0.17187,-0.11328 0.0573,-0.0362 0.11528,-0.0713 0.17383,-0.10547 0.0587,-0.0342 0.11792,-0.0674 0.17774,-0.0996 0.0593,-0.0323 0.11925,-0.0635 0.17968,-0.0937 0.0613,-0.0304 0.12319,-0.0597 0.18555,-0.0879 0.062,-0.0284 0.12453,-0.0558 0.1875,-0.082 0.0627,-0.0258 0.12588,-0.0506 0.18945,-0.0742 0.0634,-0.0239 0.12722,-0.0467 0.19141,-0.0684 0.0647,-0.0213 0.12986,-0.0415 0.19531,-0.0605 0.0648,-0.0194 0.1299,-0.0376 0.19531,-0.0547 0.0661,-0.0174 0.13253,-0.0337 0.19922,-0.0488 0.0662,-0.0148 0.13258,-0.0285 0.19922,-0.041 0.0669,-0.0122 0.13393,-0.0233 0.20117,-0.0332 0.0675,-0.0103 0.13527,-0.0194 0.20313,-0.0273 0.0676,-0.008 0.13531,-0.0142 0.20312,-0.0195 0.0676,-0.006 0.13535,-0.0103 0.20313,-0.0137 0.0677,-0.003 0.13538,-0.005 0.20312,-0.006 0.0221,-1.2e-4 0.0443,-1.2e-4 0.0664,0 0.0677,1.3e-4 0.13544,10e-4 0.20312,0.004 0.0678,0.002 0.13548,0.005 0.20313,0.01 0.0678,0.005 0.13553,0.0105 0.20313,0.0176 0.0679,0.007 0.13557,0.0158 0.20312,0.0254 0.0672,0.009 0.1343,0.0197 0.20117,0.0312 0.0673,0.0118 0.13435,0.0249 0.20117,0.0391 0.0667,0.0138 0.13308,0.0288 0.19922,0.0449 0.0661,0.0164 0.13182,0.034 0.19727,0.0527 0.0654,0.019 0.13056,0.0392 0.19531,0.0605 0.0642,0.0204 0.12798,0.0419 0.19141,0.0645 0.0642,0.0236 0.12804,0.0484 0.1914,0.0742 0.0629,0.025 0.12545,0.051 0.1875,0.0781 0.0623,0.0276 0.1242,0.0562 0.18555,0.0859 0.0611,0.0295 0.12163,0.0602 0.18164,0.0918 0.0605,0.0315 0.12036,0.0641 0.17969,0.0977 0.0585,0.0341 0.1165,0.0693 0.17383,0.10547 0.0579,0.0355 0.11522,0.0719 0.17187,0.10937 0.0567,0.0381 0.11266,0.0772 0.16797,0.11719 0.0554,0.0394 0.11008,0.0798 0.16406,0.12109 0.0535,0.0421 0.10622,0.085 0.15821,0.12891 0.0522,0.0434 0.10363,0.0876 0.15429,0.13281 0.0509,0.0453 0.10107,0.0916 0.15039,0.13867 0.049,0.0467 0.0972,0.0942 0.14453,0.14258 0.0477,0.0487 0.0946,0.0981 0.14063,0.14844 0.0458,0.05 0.0907,0.10079 0.13477,0.15234 0.0439,0.052 0.0869,0.10473 0.1289,0.15821 0.0426,0.0533 0.0843,0.10735 0.125,0.16211 0.04,0.0547 0.0791,0.11 0.11719,0.16601 0.0388,0.0566 0.0765,0.11393 0.11328,0.17188 0.0361,0.0573 0.0713,0.11528 0.10547,0.17382 0.0349,0.0587 0.0687,0.11791 0.10156,0.17774 0.0323,0.0593 0.0635,0.11926 0.0937,0.17969 0.0304,0.0613 0.0597,0.12319 0.0879,0.18554 0.0277,0.0614 0.0545,0.12325 0.0801,0.18555 0.0258,0.0634 0.0506,0.12718 0.0742,0.19141 0.0239,0.0634 0.0467,0.12721 0.0684,0.1914 0.022,0.0647 0.0428,0.12986 0.0625,0.19532 0.0194,0.0648 0.0376,0.1299 0.0547,0.19531 0.0168,0.0661 0.0324,0.13255 0.0469,0.19922 0.0148,0.0662 0.0285,0.13258 0.041,0.19922 0.0122,0.0669 0.0233,0.13393 0.0332,0.20117 0.0103,0.0675 0.0194,0.13526 0.0273,0.20312 0.008,0.0676 0.0142,0.13531 0.0195,0.20313 0.006,0.0676 0.0103,0.13534 0.0137,0.20312 0.003,0.0677 0.005,0.13539 0.006,0.20313 1.2e-4,0.0221 1.2e-4,0.0443 0,0.0664 -1.3e-4,0.0677 -0.001,0.13545 -0.004,0.20313 -0.002,0.0678 -0.005,0.13547 -0.01,0.20312 -0.005,0.0678 -0.0105,0.13553 -0.0176,0.20313 -0.007,0.0678 -0.0158,0.13557 -0.0254,0.20312 -0.009,0.0672 -0.0197,0.13431 -0.0312,0.20118 -0.0118,0.0673 -0.0249,0.13435 -0.0391,0.20117 -0.009,0.0431 -0.019,0.086 -0.0293,0.1289 l 14.007,0.044 c 0,0 -0.42626,-20.91703 -20.45036,-19.94044 z"
       sodipodi:nodetypes="scccccccccccccccccccccccscccccccsssccccccsccccccccccccccccccccccccccccscccccccssssccccccccscccccccccccccccccccccss" />
    <path
       style="fill:#f1f2f0;fill-opacity:1;fill-rule:evenodd;stroke-linecap:round;stroke-linejoin:round"
       d="m 200.54803,468.56252 119.48743,-78.97988 c 0,0 13.7738,-10.43003 20.34241,-10.05242 6.56862,0.37762 23.38075,13.89369 23.38075,13.89369 0,0 -118.09014,75.56238 -119.36334,75.78374 -1.27321,0.22136 -43.84725,-0.64513 -43.84725,-0.64513 z"
       id="path907"
       sodipodi:nodetypes="ccscsc" />
  </g>
</svg>
