<svg height='300px' width='300px' fill="#000000" xmlns="http://www.w3.org/2000/svg" xmlns:xlink="http://www.w3.org/1999/xlink" version="1.1" x="0px" y="0px" viewBox="0 0 24 24" enable-background="new 0 0 24 24" xml:space="preserve">
  <g>
    <path d="M12.036,23.875c-6.582,0-11.938-5.355-11.938-11.938C0.099,5.355,5.454,0,12.036,0s11.938,5.355,11.938,11.938   C23.974,18.52,18.618,23.875,12.036,23.875z M12.036,1.836c-5.57,0-10.101,4.531-10.101,10.101c0,5.569,4.531,10.101,10.101,10.101   c5.569,0,10.101-4.531,10.101-10.101C22.137,6.368,17.605,1.836,12.036,1.836z"></path>
  </g>
  <g>
    <path d="M10.458,15.84c-0.235,0-0.47-0.09-0.649-0.269l-2.812-2.813c-0.359-0.358-0.359-0.939,0-1.298   c0.358-0.359,0.939-0.359,1.298,0l2.163,2.163l5.319-5.319c0.358-0.358,0.939-0.358,1.299,0c0.358,0.359,0.358,0.94,0,1.299   l-5.969,5.969C10.928,15.75,10.693,15.84,10.458,15.84z"></path>
  </g>
</svg>